<svg width="284" height="62" viewBox="0 0 284 62" fill="none" xmlns="http://www.w3.org/2000/svg">
<path d="M0 8.51563C0 4.09735 3.58172 0.515625 8 0.515625H276C280.418 0.515625 284 4.09735 284 8.51562V54.0002C284 58.4184 280.418 62.0002 276 62.0002H8.00001C3.58173 62.0002 0 58.4184 0 54.0002V8.51563Z" fill="white"/>
<mask id="mask0_17_387" style="mask-type:alpha" maskUnits="userSpaceOnUse" x="0" y="0" width="284" height="62">
<path d="M284 54C284 58.4183 280.418 62 276 62H8C3.58172 62 -1.09673e-05 58.4183 -1.09673e-05 54V8.51547C-1.09673e-05 4.09719 3.58171 0.515467 7.99999 0.515467H276C280.418 0.515467 284 4.09719 284 8.51547V54Z" fill="white"/>
</mask>
<g mask="url(#mask0_17_387)">
<path d="M118.153 -3.87598H18.5684C5.31352 -3.87598 -5.43164 6.8692 -5.43164 20.124V50.3855C-5.43164 60.4384 2.71789 68.5879 12.7708 68.5879C15.0882 68.5879 17.3843 68.1454 19.5357 67.2842L67.2746 48.1736C75.2244 44.9912 80.0696 36.891 79.1136 28.3814C78.0753 19.1405 83.5549 10.4066 92.327 7.32054L118.493 -1.8848C119.58 -2.26732 119.306 -3.87598 118.153 -3.87598Z" fill="#FDE32A"/>
<path d="M164.295 67.4897H263.88C277.135 67.4897 287.88 56.7446 287.88 43.4897V13.2283C287.88 3.17535 279.73 -4.97417 269.677 -4.97417C267.36 -4.97417 265.064 -4.53167 262.913 -3.67044L215.174 15.4402C207.224 18.6226 202.379 26.7228 203.335 35.2324C204.373 44.4733 198.893 53.2072 190.121 56.2932L163.955 65.4986C162.868 65.8811 163.143 67.4897 164.295 67.4897Z" fill="#FDE32A"/>
</g>
</svg>
