<svg width="68" height="68" viewBox="0 0 68 68" fill="none" xmlns="http://www.w3.org/2000/svg">
<path d="M33.9997 25.4998C39.4765 25.4998 43.9163 21.06 43.9163 15.5832C43.9163 10.1063 39.4765 5.6665 33.9997 5.6665C28.5229 5.6665 24.083 10.1063 24.083 15.5832C24.083 21.06 28.5229 25.4998 33.9997 25.4998Z" stroke="#111111" stroke-width="2" stroke-linecap="round" stroke-linejoin="round"/>
<path d="M5.6665 58.0832C5.6665 45.5641 17.0834 35.4165 31.1665 35.4165" stroke="#111111" stroke-width="2" stroke-linecap="round" stroke-linejoin="round"/>
<path d="M48.1665 60.9165C55.2081 60.9165 60.9165 55.2081 60.9165 48.1665C60.9165 41.1249 55.2081 35.4165 48.1665 35.4165C41.1249 35.4165 35.4165 41.1249 35.4165 48.1665C35.4165 55.2081 41.1249 60.9165 48.1665 60.9165Z" stroke="#111111" stroke-width="2"/>
<path d="M46.75 43.9165V49.5832H52.4167" stroke="#111111" stroke-width="2" stroke-linecap="round" stroke-linejoin="round"/>
</svg>
