<svg width="50" height="50" viewBox="0 0 50 50" fill="none" xmlns="http://www.w3.org/2000/svg">
<path fill-rule="evenodd" clip-rule="evenodd" d="M6.25 0H37.5L50 10V45C50 46.3261 49.3415 47.5979 48.1694 48.5355C46.9973 49.4732 45.4076 50 43.75 50H6.25C4.5924 50 3.00268 49.4732 1.83058 48.5355C0.65848 47.5979 0 46.3261 0 45V5C0 3.67392 0.65848 2.40215 1.83058 1.46447C3.00268 0.526784 4.5924 0 6.25 0ZM34.9125 5H6.25V45H43.75V12.07H34.9125V5ZM34.375 30.2125V22.5H21.875V36.25C21.8745 37.046 21.5574 37.8211 20.9696 38.4633C20.3819 39.1056 19.5539 39.5815 18.6056 39.8223C17.6573 40.0631 16.6378 40.0563 15.6947 39.8028C14.7515 39.5493 13.9337 39.0623 13.3595 38.4123C12.7852 37.7623 12.4845 36.983 12.5006 36.1871C12.5168 35.3913 12.8491 34.6202 13.4494 33.9854C14.0497 33.3507 14.8869 32.8852 15.8398 32.6564C16.7927 32.4275 17.812 32.4472 18.75 32.7125V20C18.75 19.337 19.0792 18.7011 19.6653 18.2322C20.2513 17.7634 21.0462 17.5 21.875 17.5H34.375C35.2038 17.5 35.9987 17.7634 36.5847 18.2322C37.1708 18.7011 37.5 19.337 37.5 20V33.75C37.4995 34.546 37.1824 35.3211 36.5946 35.9633C36.0069 36.6056 35.1789 37.0815 34.2306 37.3223C33.2823 37.5631 32.2628 37.5563 31.3197 37.3028C30.3765 37.0493 29.5587 36.5623 28.9845 35.9123C28.4102 35.2623 28.1095 34.483 28.1256 33.6871C28.1418 32.8913 28.4741 32.1202 29.0744 31.4854C29.6747 30.8507 30.5119 30.3852 31.4648 30.1564C32.4177 29.9275 33.437 29.9472 34.375 30.2125Z" fill="#193059"/>
</svg>
