<svg width="60" height="60" viewBox="0 0 60 60" fill="none" xmlns="http://www.w3.org/2000/svg">
<path d="M10 20V15C10 13.6739 10.5268 12.4021 11.4645 11.4645C12.4021 10.5268 13.6739 10 15 10H20L10 20ZM10 40V45C10 46.3261 10.5268 47.5979 11.4645 48.5355C12.4021 49.4732 13.6739 50 15 50H20L10 40ZM40 10H45C46.3261 10 47.5979 10.5268 48.5355 11.4645C49.4732 12.4021 50 13.6739 50 15V20L40 10ZM40 50H45C46.3261 50 47.5979 49.4732 48.5355 48.5355C49.4732 47.5979 50 46.3261 50 45V40L40 50ZM30 31.25L40 25L30 31.25ZM20 25L30 31.25V42.5L40 36.25V25L30 18.75L20 25Z" stroke="#262F56" stroke-width="2" stroke-linecap="round" stroke-linejoin="round"/>
<path d="M20 25V36.25L30 42.5" stroke="#262F56" stroke-width="2" stroke-linecap="round" stroke-linejoin="round"/>
</svg>
