<svg width="60" height="61" viewBox="0 0 60 61" fill="none" xmlns="http://www.w3.org/2000/svg">
<path d="M10 20.1489V15.1489C10 13.8228 10.5268 12.5511 11.4645 11.6134C12.4021 10.6757 13.6739 10.1489 15 10.1489H20L10 20.1489ZM10 40.1489V45.1489C10 46.475 10.5268 47.7468 11.4645 48.6845C12.4021 49.6221 13.6739 50.1489 15 50.1489H20L10 40.1489ZM40 10.1489H45C46.3261 10.1489 47.5979 10.6757 48.5355 11.6134C49.4732 12.5511 50 13.8228 50 15.1489V20.1489L40 10.1489ZM40 50.1489H45C46.3261 50.1489 47.5979 49.6221 48.5355 48.6845C49.4732 47.7468 50 46.475 50 45.1489V40.1489L40 50.1489ZM30 31.3989L40 25.1489L30 31.3989ZM20 25.1489L30 31.3989V42.6489L40 36.3989V25.1489L30 18.8989L20 25.1489Z" stroke="#262F56" stroke-width="2" stroke-linecap="round" stroke-linejoin="round"/>
<path d="M20 25.1489V36.3989L30 42.6489" stroke="#262F56" stroke-width="2" stroke-linecap="round" stroke-linejoin="round"/>
</svg>
