<svg width="300" height="62" viewBox="0 0 300 62" fill="none" xmlns="http://www.w3.org/2000/svg">
<mask id="mask0_43_532" style="mask-type:alpha" maskUnits="userSpaceOnUse" x="0" y="0" width="300" height="62">
<path d="M300 53.4844C300 57.9026 296.418 61.4844 292 61.4844H7.99997C3.5817 61.4844 0 57.9027 0 53.4844V7.99984C0 3.58157 3.58173 -0.000156403 8 -0.000156403H292C296.418 -0.000156403 300 3.58157 300 7.99984V53.4844Z" fill="white"/>
</mask>
<g mask="url(#mask0_43_532)">
<path d="M124.688 -4.3916H18.2625C5.00762 -4.3916 -5.73755 6.35358 -5.73755 19.6084V48.6884C-5.73755 59.3938 2.94093 68.0723 13.6464 68.0723C15.9933 68.0723 18.3208 67.6461 20.5155 66.8144L71.7012 47.4168C79.6803 44.393 84.5746 36.3238 83.569 27.8504C82.479 18.6665 87.9924 9.98086 96.7669 7.05859L125.019 -2.35041C126.146 -2.7259 125.876 -4.3916 124.688 -4.3916Z" fill="#FDE32A"/>
<path d="M173.673 66.9741H280.098C293.353 66.9741 304.098 56.2289 304.098 42.9741V13.8941C304.098 3.18867 295.42 -5.4898 284.714 -5.4898C282.367 -5.4898 280.04 -5.06358 277.845 -4.23187L226.66 15.1657C218.681 18.1895 213.786 26.2588 214.792 34.7321C215.882 43.916 210.368 52.6017 201.594 55.5239L173.342 64.9329C172.215 65.3084 172.485 66.9741 173.673 66.9741Z" fill="#FDE32A"/>
</g>
</svg>
