<svg width="50" height="50" viewBox="0 0 50 50" fill="none" xmlns="http://www.w3.org/2000/svg">
<path d="M49.9999 25.1531C49.9999 11.2594 38.8062 -0.00312519 24.9999 -0.00312519C11.1874 -1.90688e-07 -0.00634766 11.2594 -0.00634766 25.1563C-0.00634766 37.7094 9.1374 48.1156 21.0874 50.0031V32.425H14.7437V25.1563H21.0937V19.6094C21.0937 13.3062 24.828 9.825 30.5374 9.825C33.2749 9.825 36.1343 10.3156 36.1343 10.3156V16.5031H32.9812C29.878 16.5031 28.9093 18.4437 28.9093 20.4344V25.1531H35.8405L34.7343 32.4219H28.9062V50C40.8562 48.1125 49.9999 37.7063 49.9999 25.1531Z" fill="#699BF7"/>
</svg>
