<svg width="229" height="228" viewBox="0 0 229 228" fill="none" xmlns="http://www.w3.org/2000/svg">
<path d="M119.325 66.39C124.948 60.7707 132.573 57.6154 140.523 57.6182C148.473 57.6211 156.096 60.7818 161.715 66.405C167.334 72.0283 170.49 79.6534 170.487 87.6031C170.484 95.5528 167.323 103.176 161.7 108.795C158.916 111.577 155.61 113.784 151.973 115.289C148.336 116.794 144.438 117.568 140.502 117.567C132.552 117.564 124.929 114.403 119.31 108.78C113.691 103.157 110.535 95.5316 110.538 87.5819C110.541 79.6322 113.702 72.0093 119.325 66.39ZM151.095 77.01C149.718 75.5656 148.067 74.4109 146.238 73.6139C144.409 72.8168 142.439 72.3935 140.443 72.3688C138.448 72.3441 136.468 72.7185 134.62 73.47C132.771 74.2215 131.092 75.3349 129.68 76.7448C128.268 78.1547 127.152 79.8326 126.398 81.6799C125.644 83.5272 125.267 85.5067 125.289 87.5018C125.311 89.497 125.731 91.4677 126.526 93.298C127.32 95.1284 128.472 96.7814 129.915 98.16C132.741 100.861 136.513 102.35 140.422 102.307C144.332 102.264 148.069 100.693 150.836 97.9306C153.602 95.1679 155.178 91.4325 155.227 87.5231C155.275 83.6136 153.792 79.8403 151.095 77.01ZM134.235 187.56C130.039 189.551 125.329 190.194 120.753 189.402C116.177 188.609 111.958 186.42 108.675 183.135L99.525 174L88.56 192.3C87.9747 193.28 87.1736 194.113 86.2175 194.737C85.2614 195.36 84.1757 195.757 83.043 195.897C81.9103 196.038 80.7605 195.918 79.6812 195.546C78.6019 195.175 77.6216 194.562 76.815 193.755L34.365 151.29C33.5597 150.484 32.9485 149.506 32.5777 148.429C32.207 147.352 32.0864 146.205 32.2252 145.074C32.364 143.943 32.7585 142.859 33.3788 141.904C33.999 140.948 34.8287 140.147 35.805 139.56L54.105 128.58L44.955 119.43C41.6752 116.147 39.4909 111.93 38.7015 107.356C37.912 102.783 38.5559 98.0779 40.545 93.885L23.745 77.085C22.3389 75.6785 21.5491 73.7712 21.5491 71.7825C21.5491 69.7938 22.3389 67.8865 23.745 66.48L39.645 50.58C46.2217 44.0015 54.6738 39.6204 63.8405 38.0385C73.0071 36.4565 82.4387 37.7513 90.84 41.745L104.895 27.69C117.083 15.5018 132.374 6.88199 149.111 2.76504C165.849 -1.3519 183.394 -0.808967 199.845 4.335C205.469 6.0942 210.582 9.18945 214.749 13.356C218.915 17.5225 222.011 22.6364 223.77 28.26C234.27 61.785 225.27 98.37 200.43 123.21L186.36 137.28C190.351 145.682 191.645 155.113 190.063 164.279C188.481 173.445 184.102 181.897 177.525 188.475L161.625 204.375C160.218 205.781 158.311 206.571 156.322 206.571C154.334 206.571 152.426 205.781 151.02 204.375L134.22 187.575L134.235 187.56ZM195.375 18.66C181.537 14.3286 166.778 13.8686 152.697 17.3299C138.617 20.7912 125.752 28.0417 115.5 38.295L103.275 50.52L103.32 50.58L92.715 61.185L92.67 61.125L60.84 92.955L60.885 93.015L54.855 99.06C53.7852 100.504 53.2694 102.284 53.4016 104.076C53.5337 105.868 54.305 107.554 55.575 108.825L119.28 172.53C120.555 173.806 122.247 174.579 124.046 174.709C125.845 174.838 127.63 174.315 129.075 173.235L135.09 167.22L135.15 167.28L166.98 135.45L166.92 135.39L177.525 124.785L177.585 124.845L189.81 112.605C200.066 102.354 207.319 89.4907 210.783 75.41C214.247 61.3294 213.789 46.569 209.46 32.73C208.422 29.4199 206.596 26.4108 204.141 23.9604C201.685 21.51 198.672 19.6913 195.36 18.66H195.375ZM145.755 177.885L156.33 188.46L166.92 177.855C170.644 174.137 173.325 169.505 174.694 164.424C176.063 159.343 176.072 153.991 174.72 148.905L145.755 177.885ZM79.185 53.385C74.1014 52.036 68.7526 52.0465 63.6744 53.4155C58.5961 54.7844 53.9667 57.4637 50.25 61.185L39.66 71.79L50.235 82.35L79.185 53.4V53.385ZM88.6049 163.065L65.055 139.515L51.765 147.465L80.64 176.355L88.59 163.065H88.6049ZM45.03 193.665C45.7734 192.98 46.3706 192.151 46.7857 191.229C47.2008 190.307 47.4252 189.311 47.4454 188.3C47.4657 187.289 47.2813 186.285 46.9034 185.347C46.5255 184.409 45.9619 183.558 45.2465 182.843C44.531 182.129 43.6785 181.566 42.7402 181.19C41.8019 180.813 40.7971 180.63 39.7863 180.652C38.7755 180.674 37.7794 180.899 36.8581 181.316C35.9368 181.732 35.1091 182.331 34.425 183.075L7.90495 209.595C7.18863 210.287 6.61726 211.114 6.2242 212.029C5.83113 212.944 5.62423 213.929 5.61558 214.924C5.60692 215.92 5.79669 216.908 6.17379 217.83C6.5509 218.751 7.1078 219.589 7.81199 220.293C8.51619 220.997 9.35358 221.554 10.2753 221.931C11.197 222.308 12.1846 222.498 13.1805 222.489C14.1763 222.481 15.1605 222.274 16.0755 221.881C16.9905 221.488 17.8181 220.916 18.51 220.2L45.03 193.68V193.665ZM23.805 161.85C25.211 163.256 26.0009 165.164 26.0009 167.152C26.0009 169.141 25.211 171.049 23.805 172.455L13.17 183.09C11.7617 184.496 9.85238 185.286 7.86215 185.284C5.87192 185.283 3.96377 184.491 2.55746 183.082C1.15114 181.674 0.361877 179.765 0.363283 177.775C0.36469 175.784 1.15666 173.876 2.56495 172.47L13.2 161.85C14.6064 160.444 16.5137 159.654 18.5025 159.654C20.4912 159.654 22.3985 160.444 23.805 161.85ZM66.255 214.905C67.5666 213.482 68.2774 211.607 68.2387 209.672C68.2 207.737 67.4148 205.892 66.0472 204.522C64.6797 203.153 62.8357 202.365 60.9008 202.324C58.9659 202.282 57.0899 202.99 55.665 204.3L45.015 214.935C43.6087 216.343 42.8194 218.253 42.8208 220.243C42.8222 222.233 43.6142 224.141 45.0225 225.548C46.4308 226.954 48.34 227.743 50.3303 227.742C52.3205 227.74 54.2286 226.948 55.635 225.54L66.27 214.905H66.255Z" fill="#193059" fill-opacity="0.5"/>
</svg>
