<svg width="60" height="60" viewBox="0 0 60 60" fill="none" xmlns="http://www.w3.org/2000/svg">
<path d="M55.063 18.218L56.092 16.52C56.092 16.52 56.998 15.018 56.998 13.001C56.998 8.115 52.336 8.244 52.336 8.244L42.179 5.479L36.638 0L29.347 1.985L26.956 1.334L25.139 3.131L14.642 5.989C14.642 5.989 10.602 5.878 10.602 10.112C10.602 11.86 11.388 13.162 11.388 13.162L12.739 15.392L11.552 16.564L5.692 18.16C5.692 18.16 1.03 18.031 1.03 22.917C1.03932 24.0554 1.30561 25.1769 1.809 26.198L0 27.987L0.949 28.363C0.97 28.414 0.978 28.471 1.019 28.512C2.854 30.351 2.703 32.821 2.441 34.155L1.332 35.266L9.733 39.305L21.271 58.35C23.12 61.256 27.045 59.438 27.045 59.438L56.694 45.182L55.585 44.071C55.323 42.737 55.172 40.267 57.007 38.427C57.048 38.386 57.056 38.329 57.077 38.279L58.026 37.902L52.513 32.452L58.843 29.409L57.882 28.446C57.655 27.29 57.524 25.149 59.115 23.555C59.15 23.519 59.156 23.471 59.175 23.426L60 23.099L55.063 18.218ZM49.378 9.383L48.128 11.361L44.894 8.163L49.378 9.383ZM37.176 5.144L41.819 10.107L25.03 16.174L21.065 10.018L37.176 5.144ZM13.744 17.052L25.201 35.963L3.374 27.305L13.744 17.052ZM8.969 19.119L7.624 20.449L7.086 19.624L8.969 19.119ZM4.722 20.153L5.974 22.08L3.261 24.762C3.04753 24.17 2.93562 23.5463 2.93 22.917C2.93 21.091 3.836 20.396 4.722 20.153ZM3.154 35.026L3.169 34.968L28.316 45.975L3.366 34.081C3.389 33.946 3.407 33.797 3.426 33.647L22.959 41.827L3.494 32.711C3.49897 32.2944 3.4702 31.878 3.408 31.466L21.487 38.911L3.165 30.4C3.04739 30.006 2.88991 29.625 2.695 29.263L27.578 39.888L28.144 40.822C29.311 42.656 31.428 42.317 32.495 41.999C33.97 42.727 36.614 44.411 35.937 46.892C35.58 48.204 34.795 48.84 33.538 48.84C32.265 48.84 30.994 48.174 30.981 48.165L3.154 35.026ZM28.2 48.185L26.234 48.999L24.564 46.436L28.2 48.185ZM20.586 53.566L12.857 40.807L20.539 44.5L24.172 50.092C22.707 50.718 21.07 52.147 20.586 53.566ZM54.619 41.382C54.5568 41.794 54.5281 42.2104 54.533 42.627L35.068 51.743L54.601 43.563C54.62 43.712 54.637 43.862 54.661 43.997L29.711 55.892L54.858 44.885C54.8636 44.9042 54.8686 44.9235 54.873 44.943L27.046 58.08C27.033 58.089 25.764 58.755 24.489 58.755C23.231 58.755 22.447 58.118 22.09 56.807C21.172 53.44 26.392 51.531 26.47 51.502L31.045 49.55C31.536 49.759 35.039 51.134 36.756 48.435L37.839 46.649L55.333 39.179C55.1382 39.5412 54.9804 39.9221 54.862 40.316L36.54 48.827L54.619 41.382ZM54.653 37.221L39.828 43.365L43.942 36.574L50.709 33.321L54.653 37.221ZM57.046 26.114C56.9928 26.4712 56.9677 26.8319 56.971 27.193L40.103 35.093L57.031 28.004C57.048 28.133 57.062 28.264 57.083 28.38L35.459 38.688L57.253 29.149C57.2583 29.1654 57.2626 29.1821 57.266 29.199L33.149 40.586C33.138 40.593 32.037 41.171 30.933 41.171C29.842 41.171 29.163 40.618 28.854 39.482C28.058 36.564 32.582 34.91 32.65 34.885L57.664 24.205C57.4953 24.519 57.359 24.8494 57.257 25.191L41.377 32.567L57.046 26.114Z" fill="#193059"/>
</svg>
