<svg width="58" height="58" viewBox="0 0 58 58" fill="none" xmlns="http://www.w3.org/2000/svg">
<g filter="url(#filter0_d_660_18)">
<path fill-rule="evenodd" clip-rule="evenodd" d="M45.6667 13.8889C45.6667 12.7838 46.1056 11.724 46.887 10.9426C47.6684 10.1612 48.7283 9.72223 49.8333 9.72223C50.9384 9.72223 51.9982 10.1612 52.7796 10.9426C53.561 11.724 54 12.7838 54 13.8889V42.0875L49.8333 48.3375L45.6667 42.0875V13.8889ZM49.8333 12.5C49.465 12.5 49.1117 12.6463 48.8512 12.9068C48.5908 13.1673 48.4444 13.5205 48.4444 13.8889V41.2458L49.8333 43.3292L51.2222 41.2458V13.8889C51.2222 13.5205 51.0759 13.1673 50.8154 12.9068C50.5549 12.6463 50.2017 12.5 49.8333 12.5Z" fill="#193059"/>
<path fill-rule="evenodd" clip-rule="evenodd" d="M52.6111 19.4444H47.0556V16.6667H52.6111V19.4444ZM9.55556 2.77778C8.81884 2.77778 8.1123 3.07044 7.59137 3.59137C7.07044 4.1123 6.77778 4.81884 6.77778 5.55556V44.4444C6.77778 45.1812 7.07044 45.8877 7.59137 46.4086C8.1123 46.9296 8.81884 47.2222 9.55556 47.2222H37.3333C38.07 47.2222 38.7766 46.9296 39.2975 46.4086C39.8185 45.8877 40.1111 45.1812 40.1111 44.4444V5.55556C40.1111 4.81884 39.8185 4.1123 39.2975 3.59137C38.7766 3.07044 38.07 2.77778 37.3333 2.77778H9.55556ZM4 5.55556C4 4.08213 4.58532 2.66905 5.62718 1.62718C6.66905 0.585316 8.08213 0 9.55556 0H37.3333C38.8068 0 40.2198 0.585316 41.2617 1.62718C42.3036 2.66905 42.8889 4.08213 42.8889 5.55556V44.4444C42.8889 45.9179 42.3036 47.3309 41.2617 48.3728C40.2198 49.4147 38.8068 50 37.3333 50H9.55556C8.08213 50 6.66905 49.4147 5.62718 48.3728C4.58532 47.3309 4 45.9179 4 44.4444V5.55556Z" fill="#193059"/>
<path fill-rule="evenodd" clip-rule="evenodd" d="M23.4444 12.5C23.4444 12.1316 23.5908 11.7783 23.8512 11.5179C24.1117 11.2574 24.465 11.1111 24.8333 11.1111H35.9444C36.3128 11.1111 36.6661 11.2574 36.9265 11.5179C37.187 11.7783 37.3333 12.1316 37.3333 12.5C37.3333 12.8683 37.187 13.2216 36.9265 13.4821C36.6661 13.7425 36.3128 13.8889 35.9444 13.8889H24.8333C24.465 13.8889 24.1117 13.7425 23.8512 13.4821C23.5908 13.2216 23.4444 12.8683 23.4444 12.5ZM23.4444 18.0555C23.4444 17.6872 23.5908 17.3339 23.8512 17.0734C24.1117 16.813 24.465 16.6666 24.8333 16.6666H35.9444C36.3128 16.6666 36.6661 16.813 36.9265 17.0734C37.187 17.3339 37.3333 17.6872 37.3333 18.0555C37.3333 18.4239 37.187 18.7772 36.9265 19.0376C36.6661 19.2981 36.3128 19.4444 35.9444 19.4444H24.8333C24.465 19.4444 24.1117 19.2981 23.8512 19.0376C23.5908 18.7772 23.4444 18.4239 23.4444 18.0555ZM23.4444 30.5555C23.4444 30.1872 23.5908 29.8339 23.8512 29.5734C24.1117 29.313 24.465 29.1666 24.8333 29.1666H35.9444C36.3128 29.1666 36.6661 29.313 36.9265 29.5734C37.187 29.8339 37.3333 30.1872 37.3333 30.5555C37.3333 30.9239 37.187 31.2772 36.9265 31.5376C36.6661 31.7981 36.3128 31.9444 35.9444 31.9444H24.8333C24.465 31.9444 24.1117 31.7981 23.8512 31.5376C23.5908 31.2772 23.4444 30.9239 23.4444 30.5555ZM23.4444 36.1111C23.4444 35.7427 23.5908 35.3895 23.8512 35.129C24.1117 34.8685 24.465 34.7222 24.8333 34.7222H35.9444C36.3128 34.7222 36.6661 34.8685 36.9265 35.129C37.187 35.3895 37.3333 35.7427 37.3333 36.1111C37.3333 36.4794 37.187 36.8327 36.9265 37.0932C36.6661 37.3536 36.3128 37.5 35.9444 37.5H24.8333C24.465 37.5 24.1117 37.3536 23.8512 37.0932C23.5908 36.8327 23.4444 36.4794 23.4444 36.1111ZM12.3333 30.5555V34.7222H16.5V30.5555H12.3333ZM10.9444 27.7778H17.8889C18.2572 27.7778 18.6105 27.9241 18.871 28.1845C19.1314 28.445 19.2778 28.7983 19.2778 29.1666V36.1111C19.2778 36.4794 19.1314 36.8327 18.871 37.0932C18.6105 37.3536 18.2572 37.5 17.8889 37.5H10.9444C10.5761 37.5 10.2228 37.3536 9.96235 37.0932C9.70188 36.8327 9.55555 36.4794 9.55555 36.1111V29.1666C9.55555 28.7983 9.70188 28.445 9.96235 28.1845C10.2228 27.9241 10.5761 27.7778 10.9444 27.7778V27.7778ZM20.2597 11.518C20.5201 11.7785 20.6664 12.1317 20.6664 12.5C20.6664 12.8683 20.5201 13.2215 20.2597 13.4819L13.7222 20.0194L9.96249 16.2597C9.82984 16.1316 9.72403 15.9783 9.65124 15.8089C9.57845 15.6394 9.54014 15.4572 9.53854 15.2728C9.53693 15.0883 9.57207 14.9054 9.64191 14.7348C9.71174 14.5641 9.81487 14.409 9.94528 14.2786C10.0757 14.1482 10.2308 14.0451 10.4014 13.9752C10.5721 13.9054 10.755 13.8702 10.9394 13.8718C11.1239 13.8734 11.3061 13.9118 11.4756 13.9846C11.645 14.0573 11.7983 14.1632 11.9264 14.2958L13.7222 16.0916L18.2958 11.518C18.5563 11.2577 18.9095 11.1114 19.2778 11.1114C19.6461 11.1114 19.9993 11.2577 20.2597 11.518V11.518Z" fill="#193059"/>
</g>
<defs>
<filter id="filter0_d_660_18" x="0" y="0" width="58" height="58" filterUnits="userSpaceOnUse" color-interpolation-filters="sRGB">
<feFlood flood-opacity="0" result="BackgroundImageFix"/>
<feColorMatrix in="SourceAlpha" type="matrix" values="0 0 0 0 0 0 0 0 0 0 0 0 0 0 0 0 0 0 127 0" result="hardAlpha"/>
<feOffset dy="4"/>
<feGaussianBlur stdDeviation="2"/>
<feComposite in2="hardAlpha" operator="out"/>
<feColorMatrix type="matrix" values="0 0 0 0 0 0 0 0 0 0 0 0 0 0 0 0 0 0 0.25 0"/>
<feBlend mode="normal" in2="BackgroundImageFix" result="effect1_dropShadow_660_18"/>
<feBlend mode="normal" in="SourceGraphic" in2="effect1_dropShadow_660_18" result="shape"/>
</filter>
</defs>
</svg>
