<svg width="62" height="59" viewBox="0 0 62 59" fill="none" xmlns="http://www.w3.org/2000/svg">
<path d="M48.8229 11.9846C48.6615 11.8406 48.4991 11.6954 48.3357 11.5492C45.7654 9.25084 42.9404 6.72471 39.8379 4.79944C36.5127 2.736 32.757 1.28799 28.4806 1.52544C24.2606 1.75975 20.9178 3.71471 18.0777 6.16366C16.1076 7.86243 14.2724 9.90455 12.5476 11.8238C11.8412 12.6099 11.1534 13.3753 10.4823 14.0881C6.33956 18.4887 1.64691 23.6284 1.50381 30.1415C1.35932 36.7176 5.33246 42.3537 9.83535 46.8877C14.6691 51.7549 20.6095 56.7746 28.4431 57.4068C36.667 58.0705 44.7905 55.1446 50.7361 50.1126C56.7736 45.0027 60.8879 37.7851 60.4711 30.0933C60.2653 26.2952 58.6758 22.9644 56.5062 20.01C54.345 17.0669 51.5486 14.4183 48.8229 11.9846Z" fill="#193059" fill-opacity="0.1" stroke="#193059" stroke-width="3"/>
<path d="M40 28C36.7495 28.1885 33.6233 29.3153 31 31.244C28.3767 29.3153 25.2505 28.1885 22 28V30.96C21.4687 30.9611 20.9595 31.1731 20.5845 31.5494C20.2094 31.9258 19.9992 32.4357 20 32.967V33.971C20 35.08 22 36.179 22 36.179V38.186C24.656 38.3568 27.2175 39.2375 29.417 40.736C29.9724 41.1214 30.5012 41.5437 31 42C31.4988 41.5437 32.0276 41.1214 32.583 40.736C34.7825 39.2375 37.344 38.3568 40 38.186V35.978C40.5313 35.9769 41.0405 35.7649 41.4155 35.3886C41.7906 35.0122 42.0008 34.5023 42 33.971V32.967C42.0008 32.4357 41.7906 31.9258 41.4155 31.5494C41.0405 31.1731 40.5313 30.9611 40 30.96V28ZM31 39.422C28.926 37.902 26.5315 36.8772 24 36.426V30.276C25.9401 30.6668 27.7821 31.4428 29.417 32.558C29.9724 32.9434 30.5012 33.3657 31 33.822C31.4988 33.3657 32.0276 32.9434 32.583 32.558C34.2179 31.4424 36.0598 30.6661 38 30.275V36.426C35.4685 36.8772 33.074 37.902 31 39.422ZM30 26H32V27H30V26ZM30 22H32V23H30V22Z" fill="#193059"/>
<path d="M30 28H32V29H30V28ZM28 23C28.2652 23 28.5196 22.8946 28.7071 22.7071C28.8947 22.5196 29 22.2652 29 22C29.001 21.8697 28.976 21.7406 28.9266 21.62C28.8771 21.4995 28.8042 21.39 28.7121 21.2979C28.62 21.2058 28.5105 21.1329 28.39 21.0835C28.2694 21.034 28.1403 21.0091 28.01 21.01C27.8794 21.0093 27.7498 21.0344 27.6289 21.0838C27.5079 21.1332 27.3978 21.206 27.305 21.2979C27.1174 21.4836 27.0113 21.7361 27.01 22C27.0087 22.2639 27.1123 22.5175 27.2979 22.705C27.4836 22.8926 27.7361 22.9987 28 23Z" fill="#193059"/>
<path d="M34 23C34.5523 23 35 22.5523 35 22C35 21.4477 34.5523 21 34 21C33.4477 21 33 21.4477 33 22C33 22.5523 33.4477 23 34 23Z" fill="#193059"/>
<path d="M35 26H27C26.2046 25.9992 25.442 25.6829 24.8796 25.1204C24.3171 24.558 24.0008 23.7954 24 23V21C24.0008 20.2046 24.3171 19.442 24.8796 18.8796C25.442 18.3171 26.2046 18.0008 27 18H35C35.7954 18.0008 36.558 18.3171 37.1204 18.8796C37.6829 19.442 37.9992 20.2046 38 21V23C37.9992 23.7954 37.6829 24.558 37.1204 25.1204C36.558 25.6829 35.7954 25.9992 35 26ZM27 20C26.7349 20.0003 26.4807 20.1057 26.2932 20.2932C26.1057 20.4807 26.0003 20.7349 26 21V23C26.0003 23.2651 26.1057 23.5193 26.2932 23.7068C26.4807 23.8943 26.7349 23.9997 27 24H35C35.2651 23.9997 35.5193 23.8943 35.7068 23.7068C35.8943 23.5193 35.9997 23.2651 36 23V21C35.9997 20.7349 35.8943 20.4807 35.7068 20.2932C35.5193 20.1057 35.2651 20.0003 35 20H27Z" fill="#193059"/>
</svg>
