<svg width="200" height="200" viewBox="0 0 200 200" fill="none" xmlns="http://www.w3.org/2000/svg">
<path fill-rule="evenodd" clip-rule="evenodd" d="M40.258 82.9778C40.258 82.9778 44.7718 82.3693 51.3213 80.6213C68.5912 76.0134 100 63.5063 100 33.4251C100 29.036 99.1355 24.6899 97.4559 20.6349C95.7763 16.5799 93.3144 12.8955 90.2108 9.79194C87.1073 6.68839 83.4228 4.22652 79.3678 2.54689C75.3129 0.867261 70.9667 0.00276605 66.5777 0.00276605H33.8523C29.4274 -0.0541638 25.0353 0.768204 20.9307 2.42215C16.8261 4.0761 13.0909 6.5287 9.94169 9.63765C6.79249 12.7466 4.29204 16.45 2.58542 20.5329C0.878804 24.6159 0 28.9971 0 33.4223C0 37.8476 0.878804 42.2288 2.58542 46.3118C4.29204 50.3947 6.79249 54.0981 9.94169 57.207C13.0909 60.316 16.8261 62.7686 20.9307 64.4225C25.0353 66.0765 29.4274 66.8988 33.8523 66.8419H40.258V82.9778ZM51.3213 55.7786H33.8523C30.8869 55.8252 27.9418 55.2814 25.1885 54.1789C22.4352 53.0763 19.9288 51.437 17.8153 49.3564C15.7017 47.2758 14.0232 44.7955 12.8774 42.0599C11.7317 39.3243 11.1416 36.3882 11.1416 33.4223C11.1416 30.4565 11.7317 27.5203 12.8774 24.7848C14.0232 22.0492 15.7017 19.5689 17.8153 17.4883C19.9288 15.4077 22.4352 13.7684 25.1885 12.6658C27.9418 11.5632 30.8869 11.0195 33.8523 11.0661H66.5777C69.5139 11.0661 72.4214 11.6444 75.1341 12.7681C77.8468 13.8917 80.3116 15.5387 82.3879 17.6149C84.4641 19.6911 86.111 22.156 87.2347 24.8687C88.3583 27.5814 88.9367 30.4889 88.9367 33.4251C88.9367 47.7134 78.9354 57.2279 65.322 63.794C60.8036 65.9407 56.122 67.7257 51.3213 69.132V55.7786V55.7786ZM47.4492 143.826C59.6741 143.826 69.5758 133.924 69.5758 121.699C69.5758 109.474 59.6741 99.5728 47.4492 99.5728C35.2242 99.5728 25.3225 109.474 25.3225 121.699C25.3225 133.924 35.2242 143.826 47.4492 143.826ZM58.5125 121.699C58.5125 124.634 57.3469 127.448 55.2721 129.522C53.1973 131.597 50.3833 132.763 47.4492 132.763C44.515 132.763 41.701 131.597 39.6262 129.522C37.5514 127.448 36.3858 124.634 36.3858 121.699C36.3858 118.765 37.5514 115.951 39.6262 113.877C41.701 111.802 44.515 110.636 47.4492 110.636C50.3833 110.636 53.1973 111.802 55.2721 113.877C57.3469 115.951 58.5125 118.765 58.5125 121.699V121.699ZM0.42997 178.493C0.42997 162.794 31.7558 154.889 47.4492 154.889C63.1425 154.889 94.4683 162.8 94.4683 178.493V199.143H0.42997V178.493ZM11.4933 188.079V178.493C11.4933 178.438 11.4933 178.327 11.6371 178.051C11.8141 177.708 12.218 177.105 13.092 176.297C14.9119 174.61 17.9598 172.768 22.1805 171.07C30.6439 167.668 40.9882 165.953 47.4492 165.953C53.9046 165.953 64.2599 167.668 72.7178 171.07C76.9329 172.768 79.9864 174.61 81.8063 176.297C82.6804 177.105 83.0842 177.708 83.2612 178.045C83.405 178.322 83.405 178.443 83.405 178.488V188.079H11.4933ZM174.678 121.699C174.678 133.924 164.776 143.826 152.551 143.826C140.326 143.826 130.424 133.924 130.424 121.699C130.424 109.474 140.326 99.5728 152.551 99.5728C164.776 99.5728 174.678 109.474 174.678 121.699ZM152.551 132.763C155.485 132.763 158.299 131.597 160.374 129.522C162.449 127.448 163.614 124.634 163.614 121.699C163.614 118.765 162.449 115.951 160.374 113.877C158.299 111.802 155.485 110.636 152.551 110.636C149.617 110.636 146.803 111.802 144.728 113.877C142.653 115.951 141.488 118.765 141.488 121.699C141.488 124.634 142.653 127.448 144.728 129.522C146.803 131.597 149.617 132.763 152.551 132.763ZM105.532 178.493C105.532 162.794 136.858 154.889 152.551 154.889C168.244 154.889 199.57 162.8 199.57 178.493V199.143H105.532V178.493ZM116.595 188.079V178.493C116.595 178.438 116.595 178.327 116.739 178.051C116.916 177.708 117.32 177.105 118.188 176.297C120.014 174.61 123.067 172.768 127.282 171.07C135.746 167.668 146.09 165.953 152.551 165.953C159.006 165.953 169.362 167.668 177.82 171.07C182.035 172.768 185.088 174.61 186.914 176.297C187.782 177.105 188.186 177.708 188.363 178.045C188.507 178.322 188.507 178.443 188.507 178.488V188.079H116.595ZM153.104 85.7768C159.576 87.8125 164.167 88.5095 164.167 88.5095V72.3736H166.148C170.573 72.4305 174.965 71.6081 179.069 69.9542C183.174 68.3002 186.909 65.8476 190.058 62.7387C193.208 59.6298 195.708 55.9264 197.415 51.8434C199.121 47.7605 200 43.3793 200 38.954C200 34.5287 199.121 30.1475 197.415 26.0646C195.708 21.9816 193.208 18.2783 190.058 15.1693C186.909 12.0604 183.174 9.60777 179.069 7.95382C174.965 6.29987 170.573 5.4775 166.148 5.53443H144.486C135.622 5.53443 127.12 9.05571 120.853 15.3236C114.585 21.5915 111.063 30.0926 111.063 38.9568C111.063 68.2525 137.543 80.8868 153.104 85.7768ZM166.148 61.3102H153.104V74.105C149.592 72.8505 146.178 71.3343 142.893 69.569C131.365 63.3127 122.127 53.9255 122.127 38.9512C122.128 33.0222 124.484 27.3365 128.677 23.1446C132.87 18.9527 138.557 16.5978 144.486 16.5978H166.148C169.113 16.5511 172.058 17.0949 174.812 18.1975C177.565 19.3 180.071 20.9394 182.185 23.02C184.298 25.1005 185.977 27.5809 187.123 30.3164C188.268 33.052 188.858 35.9882 188.858 38.954C188.858 41.9198 188.268 44.856 187.123 47.5916C185.977 50.3272 184.298 52.8075 182.185 54.8881C180.071 56.9687 177.565 58.608 174.812 59.7105C172.058 60.8131 169.113 61.3569 166.148 61.3102Z" fill="#193059"/>
</svg>
