<svg width="58" height="58" viewBox="0 0 58 58" fill="none" xmlns="http://www.w3.org/2000/svg">
<path d="M30.0007 21.5C35.4775 21.5 39.9173 17.0602 39.9173 11.5833C39.9173 6.10651 35.4775 1.66667 30.0007 1.66667C24.5238 1.66667 20.084 6.10651 20.084 11.5833C20.084 17.0602 24.5238 21.5 30.0007 21.5Z" stroke="#111111" stroke-width="2" stroke-linecap="round" stroke-linejoin="round"/>
<path d="M1.66699 54.0833C1.66699 41.5643 13.0839 31.4167 27.167 31.4167" stroke="#111111" stroke-width="2" stroke-linecap="round" stroke-linejoin="round"/>
<path d="M44.167 56.9167C51.2086 56.9167 56.917 51.2083 56.917 44.1667C56.917 37.125 51.2086 31.4167 44.167 31.4167C37.1254 31.4167 31.417 37.125 31.417 44.1667C31.417 51.2083 37.1254 56.9167 44.167 56.9167Z" stroke="#111111" stroke-width="2"/>
<path d="M42.75 39.9167V45.5833H48.4167" stroke="#111111" stroke-width="2" stroke-linecap="round" stroke-linejoin="round"/>
</svg>
