<svg width="50" height="41" viewBox="0 0 50 41" fill="none" xmlns="http://www.w3.org/2000/svg">
<path d="M50 4.9707C48.1277 5.80015 46.1417 6.34459 44.1082 6.58594C46.2264 5.31641 47.8527 3.30605 48.6186 0.910742C46.605 2.10564 44.402 2.94751 42.1047 3.4C40.2334 1.40645 37.5676 0.160547 34.617 0.160547C28.9518 0.160547 24.3586 4.75352 24.3586 10.4184C24.3586 11.2225 24.4494 12.0053 24.6242 12.7562C16.0988 12.3283 8.54023 8.24453 3.48066 2.03828C2.59785 3.55332 2.09199 5.31563 2.09199 7.19531C2.09199 10.7543 3.90313 13.8939 6.65547 15.7336C5.02646 15.6826 3.4333 15.2426 2.00898 14.4504C2.0084 14.4934 2.0084 14.5363 2.0084 14.5795C2.0084 19.5496 5.54434 23.6957 10.2369 24.6381C8.72634 25.0489 7.14185 25.109 5.60449 24.8139C6.90977 28.8893 10.6982 31.8549 15.1869 31.9379C11.6762 34.6891 7.25293 36.3291 2.44707 36.3291C1.61895 36.3291 0.802539 36.2805 0 36.1857C4.53965 39.0963 9.93164 40.7945 15.7246 40.7945C34.5932 40.7945 44.9109 25.1635 44.9109 11.608C44.9109 11.1631 44.9012 10.7207 44.8813 10.2809C46.8895 8.82907 48.6229 7.03089 50 4.9707Z" fill="#55ACEE"/>
</svg>
