<svg width="68" height="68" viewBox="0 0 68 68" fill="none" xmlns="http://www.w3.org/2000/svg">
<path d="M59.2344 51.2657H53.9219V45.9532C53.9219 45.661 53.6829 45.4219 53.3907 45.4219H50.2032C49.911 45.4219 49.6719 45.661 49.6719 45.9532V51.2657H44.3594C44.0672 51.2657 43.8282 51.5047 43.8282 51.7969V54.9844C43.8282 55.2766 44.0672 55.5157 44.3594 55.5157H49.6719V60.8281C49.6719 61.1203 49.911 61.3594 50.2032 61.3594H53.3907C53.6829 61.3594 53.9219 61.1203 53.9219 60.8281V55.5157H59.2344C59.5266 55.5157 59.7657 55.2766 59.7657 54.9844V51.7969C59.7657 51.5047 59.5266 51.2657 59.2344 51.2657ZM24.8027 33.0969C24.743 32.5192 24.7098 31.9348 24.7098 31.3438C24.7098 30.288 24.8094 29.2587 24.9953 28.2559C25.0418 28.0169 24.9156 27.7712 24.6965 27.6716C23.7934 27.2665 22.9633 26.7087 22.2461 26.0048C21.401 25.1854 20.736 24.1988 20.2935 23.108C19.851 22.0172 19.6408 20.8462 19.6762 19.6696C19.7359 17.538 20.5926 15.5126 22.0867 13.9852C23.727 12.3052 25.9317 11.3888 28.2758 11.4153C30.3942 11.4352 32.4395 12.252 33.9867 13.6997C34.5114 14.1911 34.9629 14.7356 35.3414 15.32C35.4742 15.5259 35.7332 15.6122 35.959 15.5325C37.1278 15.1274 38.3629 14.8419 39.6313 14.7091C40.0032 14.6692 40.2157 14.2708 40.0496 13.9388C37.8914 9.66884 33.4821 6.72041 28.3821 6.64072C21.0242 6.52783 14.8883 12.5641 14.8883 19.922C14.8883 24.0923 16.8074 27.811 19.8156 30.2481C17.7039 31.2243 15.7582 32.5723 14.0715 34.259C10.4324 37.8915 8.37382 42.686 8.24101 47.8059C8.23924 47.8768 8.25167 47.9473 8.27757 48.0133C8.30348 48.0793 8.34233 48.1394 8.39184 48.1902C8.44134 48.2409 8.50051 48.2812 8.56585 48.3088C8.63118 48.3363 8.70137 48.3505 8.77226 48.3504H12.4977C12.7832 48.3504 13.0223 48.1247 13.0289 47.8391C13.1551 43.9875 14.7156 40.3817 17.4582 37.6458C19.4106 35.6934 21.8012 34.3387 24.411 33.6813C24.6633 33.6083 24.836 33.3626 24.8027 33.0969ZM54.7188 31.3438C54.7188 24.079 48.8817 18.1755 41.6434 18.0626C34.2856 17.9497 28.1563 23.986 28.1563 31.3438C28.1563 35.5141 30.0821 39.2329 33.0836 41.67C30.95 42.659 29.0077 44.0168 27.3461 45.6809C23.707 49.3133 21.6484 54.1078 21.5156 59.2211C21.5139 59.292 21.5263 59.3625 21.5522 59.4285C21.5781 59.4945 21.617 59.5546 21.6665 59.6054C21.716 59.6561 21.7751 59.6965 21.8405 59.724C21.9058 59.7515 21.976 59.7657 22.0469 59.7657H25.7656C26.0512 59.7657 26.2903 59.5399 26.2969 59.2543C26.4231 55.4028 27.9836 51.7969 30.7262 49.061C33.5883 46.1989 37.3867 44.625 41.4375 44.625C48.7688 44.625 54.7188 38.6817 54.7188 31.3438ZM47.4473 37.3536C45.8403 38.9606 43.7086 39.8438 41.4375 39.8438C39.1664 39.8438 37.0348 38.9606 35.4278 37.3536C34.6258 36.5558 33.9922 35.6052 33.5644 34.5581C33.1367 33.5109 32.9235 32.3885 32.9375 31.2575C32.9574 29.0794 33.8274 26.9743 35.3481 25.4137C36.9418 23.7802 39.0735 22.8704 41.3512 22.8438C43.6024 22.8239 45.7872 23.7005 47.3942 25.2743C49.0411 26.888 49.9442 29.0462 49.9442 31.3438C49.9375 33.6149 49.0543 35.7465 47.4473 37.3536Z" fill="black"/>
</svg>
