<svg width="52" height="44" viewBox="0 0 52 44" fill="none" xmlns="http://www.w3.org/2000/svg">
<path d="M26.1299 0.125C12.0542 0.125 0.641235 9.91992 0.641235 22C0.641235 34.0801 12.0542 43.875 26.1299 43.875C40.2056 43.875 51.6186 34.0801 51.6186 22C51.6186 9.91992 40.2056 0.125 26.1299 0.125ZM34.3284 22.3369L21.9027 30.0957C21.8345 30.1377 21.7542 30.1628 21.6706 30.1682C21.5869 30.1736 21.5032 30.1591 21.4285 30.1263C21.3538 30.0935 21.2911 30.0437 21.2473 29.9823C21.2035 29.9209 21.1802 29.8503 21.1801 29.7783V14.2705C21.1798 14.1984 21.2028 14.1276 21.2466 14.066C21.2903 14.0044 21.3531 13.9544 21.4279 13.9215C21.5027 13.8886 21.5867 13.8742 21.6705 13.8798C21.7543 13.8854 21.8346 13.9107 21.9027 13.9531L34.3284 21.707C34.3871 21.7427 34.435 21.7899 34.468 21.8447C34.5011 21.8995 34.5183 21.9603 34.5183 22.022C34.5183 22.0837 34.5011 22.1445 34.468 22.1993C34.435 22.2541 34.3871 22.3013 34.3284 22.3369Z" fill="#193059"/>
</svg>
