<svg width="50" height="36" viewBox="0 0 50 36" fill="none" xmlns="http://www.w3.org/2000/svg">
<path d="M48.8955 5.4834C48.6087 4.42355 48.0493 3.45731 47.2729 2.68091C46.4965 1.90452 45.5303 1.34504 44.4705 1.0582C40.5904 0 24.9744 0 24.9744 0C24.9744 0 9.35761 0.0320312 5.47753 1.09023C4.41766 1.37709 3.45144 1.93659 2.67507 2.71303C1.89871 3.48946 1.33929 4.45574 1.05253 5.51562C-0.121105 12.4098 -0.576379 22.9148 1.08475 29.5332C1.37155 30.5931 1.93098 31.5593 2.70734 32.3357C3.48371 33.1121 4.44991 33.6716 5.50975 33.9584C9.38983 35.0166 25.0062 35.0166 25.0062 35.0166C25.0062 35.0166 40.6225 35.0166 44.5023 33.9584C45.5622 33.6716 46.5285 33.1121 47.3049 32.3357C48.0813 31.5593 48.6407 30.5931 48.9275 29.5332C50.1654 22.6293 50.5469 12.1309 48.8955 5.48359V5.4834Z" fill="#FF0000"/>
</svg>
