<svg width="60" height="60" viewBox="0 0 60 60" fill="none" xmlns="http://www.w3.org/2000/svg">
<path d="M6.875 6.875H19.375V19.375H6.875V6.875ZM23.75 6.875H36.25V19.375H23.75V6.875ZM40.625 6.875H53.125V19.375H40.625V6.875ZM6.875 23.75H19.375V36.25H6.875V23.75ZM23.75 23.75H36.25V36.25H23.75V23.75ZM40.625 23.75H53.125V36.25H40.625V23.75ZM6.875 40.625H19.375V53.125H6.875V40.625ZM23.75 40.625H36.25V53.125H23.75V40.625ZM40.625 40.625H53.125V53.125H40.625V40.625Z" stroke="#111111" stroke-linecap="round" stroke-linejoin="round"/>
<path d="M10.625 27.5H15.625V32.5H10.625V27.5ZM44.375 10.625H49.375V15.625H44.375V10.625Z" fill="#193059" stroke="#111111" stroke-linecap="round" stroke-linejoin="round"/>
</svg>
