<svg width="61" height="61" viewBox="0 0 61 61" fill="none" xmlns="http://www.w3.org/2000/svg">
<path d="M52.2958 8.65009C50.0546 3.46149 45.9459 0.867188 41.4636 0.867188H19.0521C14.5698 0.867188 10.461 3.46149 8.21983 8.65009C-0.37125 26.8102 -2.23888 54.3098 3.73753 60.0172C9.71393 65.7247 23.1608 40.8194 30.2578 40.8194C37.3548 40.8194 50.4282 65.7247 56.7781 60.0172C62.7545 54.3098 60.8869 26.8102 52.2958 8.65009ZM22.7873 26.8102H19.0521V31.9988H15.3168V26.8102H11.5816V21.6216H15.3168V16.433H19.0521V21.6216H22.7873V26.8102ZM42.9577 29.4045C42.9577 31.9988 41.4636 34.0742 39.5959 34.0742C37.7283 34.0742 36.2342 31.9988 36.2342 29.4045C36.2342 26.8102 37.7283 24.7347 39.5959 24.7347C41.4636 24.7347 42.9577 26.8102 42.9577 29.4045ZM50.0546 19.0273C50.0546 21.6216 48.5605 23.697 46.6929 23.697C44.8253 23.697 43.3312 21.6216 43.3312 19.0273C43.3312 16.433 44.8253 14.3575 46.6929 14.3575C48.5605 14.3575 50.0546 16.433 50.0546 19.0273Z" fill="#193059"/>
</svg>
