<svg width="100" height="100" viewBox="0 0 100 100" fill="none" xmlns="http://www.w3.org/2000/svg">
<path d="M7.14286 96.4286C7.14286 97.3959 6.78943 98.233 6.08259 98.9398C5.37574 99.6467 4.53869 100 3.57143 100C2.60417 100 1.76711 99.6467 1.06027 98.9398C0.353423 98.233 0 97.3959 0 96.4286C0 95.4614 0.353423 94.6243 1.06027 93.9175C1.76711 93.2106 2.60417 92.8572 3.57143 92.8572C4.53869 92.8572 5.37574 93.2106 6.08259 93.9175C6.78943 94.6243 7.14286 95.4614 7.14286 96.4286ZM17.8571 85.7144C17.8571 86.6816 17.5037 87.5187 16.7969 88.2255C16.09 88.9324 15.253 89.2858 14.2857 89.2858C13.3185 89.2858 12.4814 88.9324 11.7746 88.2255C11.0677 87.5187 10.7143 86.6816 10.7143 85.7144C10.7143 84.7471 11.0677 83.91 11.7746 83.2032C12.4814 82.4964 13.3185 82.1429 14.2857 82.1429C15.253 82.1429 16.09 82.4964 16.7969 83.2032C17.5037 83.91 17.8571 84.7471 17.8571 85.7144ZM20.3683 65.3461L34.654 79.6318L29.6317 84.6541L15.346 70.3684L20.3683 65.3461ZM39.2857 64.2858C39.2857 65.2531 38.9323 66.0901 38.2254 66.797C37.5186 67.5038 36.6815 67.8572 35.7143 67.8572C34.747 67.8572 33.91 67.5038 33.2031 66.797C32.4963 66.0901 32.1429 65.2531 32.1429 64.2858C32.1429 63.3185 32.4963 62.4815 33.2031 61.7746C33.91 61.0678 34.747 60.7144 35.7143 60.7144C36.6815 60.7144 37.5186 61.0678 38.2254 61.7746C38.9323 62.4815 39.2857 63.3185 39.2857 64.2858ZM78.7388 46.4286C78.7388 48.6236 78.5249 50.6418 78.0971 52.4833C77.6693 54.3249 76.9717 56.0641 76.0045 57.701C75.0372 59.3379 74.2187 60.5935 73.5491 61.4677C72.8795 62.342 71.8936 63.5417 70.5915 65.067C69.4382 66.3691 68.5919 67.3736 68.0525 68.0804C67.513 68.7873 66.8899 69.7173 66.183 70.8706C65.4762 72.0239 64.9833 73.2144 64.7042 74.442C64.4252 75.6697 64.2857 77.0462 64.2857 78.5715C64.2857 84.4867 62.1931 89.5369 58.0078 93.7222C53.8225 97.9074 48.7723 100 42.8571 100C41.8899 100 41.0528 99.6467 40.346 98.9398C39.6391 98.233 39.2857 97.3959 39.2857 96.4286C39.2857 95.4614 39.6391 94.6243 40.346 93.9175C41.0528 93.2106 41.8899 92.8572 42.8571 92.8572C46.8006 92.8572 50.1674 91.4621 52.9576 88.672C55.7478 85.8818 57.1429 82.515 57.1429 78.5715C57.1429 76.451 57.3568 74.4885 57.7846 72.6842C58.2124 70.8799 58.9007 69.1872 59.8493 67.6061C60.798 66.025 61.6071 64.788 62.2768 63.8952C62.9464 63.0023 63.9137 61.8304 65.1786 60.3795C66.6667 58.6682 67.7734 57.3289 68.4989 56.3617C69.2243 55.3944 69.9219 54.0086 70.5915 52.2043C71.2612 50.4 71.596 48.4748 71.596 46.4286C71.596 39.5462 69.1499 33.6589 64.2578 28.7668C59.3657 23.8747 53.4784 21.4286 46.596 21.4286C39.7135 21.4286 33.8263 23.8747 28.9342 28.7668C24.042 33.6589 21.596 39.5462 21.596 46.4286C21.596 47.3959 21.2426 48.233 20.5357 48.9398C19.8289 49.6467 18.9918 50.0001 18.0246 50.0001C17.0573 50.0001 16.2202 49.6467 15.5134 48.9398C14.8065 48.233 14.4531 47.3959 14.4531 46.4286C14.4531 42.076 15.2995 37.9186 16.9922 33.9566C18.6849 29.9945 20.9728 26.5719 23.856 23.6887C26.7392 20.8055 30.1618 18.5176 34.1239 16.8249C38.0859 15.1321 42.2433 14.2858 46.596 14.2858C50.9487 14.2858 55.106 15.1321 59.0681 16.8249C63.0301 18.5176 66.4528 20.8055 69.3359 23.6887C72.2191 26.5719 74.5071 29.9945 76.1998 33.9566C77.8925 37.9186 78.7388 42.076 78.7388 46.4286ZM50 53.5715C50 54.5388 49.6466 55.3758 48.9397 56.0827C48.2329 56.7895 47.3958 57.1429 46.4286 57.1429C45.4613 57.1429 44.6243 56.7895 43.9174 56.0827C43.2106 55.3758 42.8571 54.5388 42.8571 53.5715C42.8571 52.6042 43.2106 51.7672 43.9174 51.0603C44.6243 50.3535 45.4613 50.0001 46.4286 50.0001C47.3958 50.0001 48.2329 50.3535 48.9397 51.0603C49.6466 51.7672 50 52.6042 50 53.5715ZM66.0714 46.4286C66.0714 47.3959 65.718 48.233 65.0112 48.9398C64.3043 49.6467 63.4673 50.0001 62.5 50.0001C61.5327 50.0001 60.6957 49.6467 59.9888 48.9398C59.282 48.233 58.9286 47.3959 58.9286 46.4286C58.9286 42.9688 57.7102 40.0205 55.2734 37.5838C52.8367 35.147 49.8884 33.9286 46.4286 33.9286C43.006 33.9286 40.067 35.147 37.6116 37.5838C35.1562 40.0205 33.9286 42.9688 33.9286 46.4286C33.9286 47.3959 33.5751 48.233 32.8683 48.9398C32.1615 49.6467 31.3244 50.0001 30.3571 50.0001C29.3899 50.0001 28.5528 49.6467 27.846 48.9398C27.1391 48.233 26.7857 47.3959 26.7857 46.4286C26.7857 40.9971 28.7016 36.3654 32.5335 32.5336C36.3653 28.7017 40.997 26.7858 46.4286 26.7858C51.8601 26.7858 56.4918 28.7017 60.3237 32.5336C64.1555 36.3654 66.0714 40.9971 66.0714 46.4286ZM88.058 30.3014C88.4301 31.2315 88.4115 32.1429 88.0022 33.0358C87.593 33.9286 86.9234 34.5611 85.9933 34.9331C85.6585 35.0819 85.2307 35.1563 84.7098 35.1563C84.003 35.1563 83.3426 34.9517 82.7288 34.5425C82.115 34.1333 81.6778 33.5752 81.4174 32.8684C78.8876 26.2464 74.721 20.759 68.9174 16.4063C68.1362 15.8111 67.6711 15.0298 67.5223 14.0626C67.3735 13.0953 67.5967 12.2211 68.192 11.4398C68.8244 10.6586 69.6243 10.1935 70.5915 10.0447C71.5588 9.89591 72.433 10.1191 73.2143 10.7144C80.0223 15.8111 84.9702 22.3401 88.058 30.3014ZM99.7768 25.7813C100.112 26.7114 100.084 27.6228 99.6931 28.5157C99.3025 29.4086 98.6421 30.041 97.7121 30.413C97.3028 30.5618 96.875 30.6362 96.4286 30.6362C94.7917 30.6362 93.6756 29.8736 93.0804 28.3483C89.6577 19.4941 84.1332 12.1839 76.5067 6.41749C75.6882 5.82225 75.2139 5.041 75.0837 4.07374C74.9535 3.10647 75.186 2.23222 75.7812 1.45097C76.3765 0.632515 77.1577 0.158184 78.125 0.027976C79.0923 -0.102232 79.9665 0.130283 80.7478 0.725521C89.4903 7.23594 95.8333 15.5879 99.7768 25.7813Z" fill="black" fill-opacity="0.8"/>
</svg>
