<svg width="100" height="100" viewBox="0 0 100 100" fill="none" xmlns="http://www.w3.org/2000/svg">
<path d="M50 54.166C56.9036 54.166 62.5 48.5696 62.5 41.666C62.5 34.7625 56.9036 29.166 50 29.166C43.0964 29.166 37.5 34.7625 37.5 41.666C37.5 48.5696 43.0964 54.166 50 54.166Z" stroke="black" stroke-width="2" stroke-linecap="round" stroke-linejoin="round"/>
<path d="M50.0001 8.33301C41.1595 8.33301 32.6811 11.8449 26.4299 18.0961C20.1786 24.3473 16.6667 32.8258 16.6667 41.6663C16.6667 49.5497 18.3417 54.708 22.9167 60.4163L50.0001 91.6663L77.0834 60.4163C81.6584 54.708 83.3334 49.5497 83.3334 41.6663C83.3334 32.8258 79.8215 24.3473 73.5703 18.0961C67.3191 11.8449 58.8406 8.33301 50.0001 8.33301V8.33301Z" stroke="black" stroke-width="2" stroke-linecap="round" stroke-linejoin="round"/>
</svg>
