<svg width="60" height="50" viewBox="0 0 60 50" fill="none" xmlns="http://www.w3.org/2000/svg">
<path d="M50.8587 42.8906H46.7396C46.4583 42.8906 46.1947 43.0136 46.0189 43.2304C45.6087 43.7285 45.1693 44.209 44.7064 44.666C42.8132 46.5611 40.5707 48.0713 38.1029 49.1133C35.5462 50.1931 32.7982 50.7471 30.0228 50.7422C27.2162 50.7422 24.4974 50.1914 21.9427 49.1133C19.4749 48.0713 17.2324 46.5611 15.3392 44.666C13.4426 42.7773 11.9303 40.5387 10.8861 38.0742C9.80209 35.5195 9.25716 32.8066 9.25716 30C9.25716 27.1933 9.80794 24.4804 10.8861 21.9258C11.929 19.459 13.429 17.2382 15.3392 15.334C17.2494 13.4297 19.4701 11.9297 21.9427 10.8867C24.4974 9.80856 27.2162 9.25778 30.0228 9.25778C32.8294 9.25778 35.5482 9.8027 38.1029 10.8867C40.5755 11.9297 42.7962 13.4297 44.7064 15.334C45.1693 15.7968 45.6029 16.2773 46.0189 16.7695C46.1947 16.9863 46.4642 17.1093 46.7396 17.1093H50.8587C51.2279 17.1093 51.4564 16.6992 51.2513 16.3886C46.7572 9.40426 38.8939 4.78122 29.9583 4.80465C15.9193 4.83981 4.66341 16.2363 4.80404 30.2578C4.94466 44.0566 16.1829 55.1953 30.0228 55.1953C38.9349 55.1953 46.763 50.5781 51.2513 43.6113C51.4505 43.3008 51.2279 42.8906 50.8587 42.8906ZM56.0677 29.6308L47.7533 23.0683C47.4427 22.8222 46.9915 23.0449 46.9915 23.4375V27.8906H28.5931C28.3353 27.8906 28.1244 28.1015 28.1244 28.3593V31.6406C28.1244 31.8984 28.3353 32.1093 28.5931 32.1093H46.9915V36.5625C46.9915 36.955 47.4486 37.1777 47.7533 36.9316L56.0677 30.3691C56.1237 30.3253 56.169 30.2692 56.2002 30.2053C56.2314 30.1413 56.2476 30.0711 56.2476 30C56.2476 29.9288 56.2314 29.8586 56.2002 29.7947C56.169 29.7307 56.1237 29.6747 56.0677 29.6308Z" fill="#193059"/>
</svg>
