<svg width="100" height="100" viewBox="0 0 100 100" fill="none" xmlns="http://www.w3.org/2000/svg">
<path d="M69.0417 91.6663C70.1483 91.6727 71.2452 91.4586 72.2682 91.0365C73.2912 90.6144 74.2199 89.9928 75 89.2079L86.2917 77.9163C87.0677 77.1356 87.5033 76.0796 87.5033 74.9788C87.5033 73.878 87.0677 72.822 86.2917 72.0413L69.625 55.3746C68.8444 54.5986 67.7883 54.163 66.6875 54.163C65.5868 54.163 64.5307 54.5986 63.75 55.3746L57.0834 61.9996C52.4678 60.769 48.193 58.5033 44.5834 55.3746C41.4631 51.7592 39.1985 47.4865 37.9584 42.8746L44.5834 36.2079C45.3594 35.4273 45.795 34.3712 45.795 33.2704C45.795 32.1697 45.3594 31.1136 44.5834 30.3329L27.9167 13.6663C27.136 12.8902 26.08 12.4546 24.9792 12.4546C23.8784 12.4546 22.8224 12.8902 22.0417 13.6663L10.7917 24.9996C10.0069 25.7798 9.38525 26.7085 8.96317 27.7315C8.54109 28.7545 8.327 29.8513 8.33339 30.9579C8.7114 46.9675 15.1087 62.2466 26.2501 73.7496C37.753 84.891 53.0322 91.2883 69.0417 91.6663ZM25.0001 22.5413L35.7917 33.3329L30.4167 38.7079C29.9076 39.1848 29.5264 39.7819 29.308 40.4443C29.0896 41.1068 29.041 41.8135 29.1667 42.4996C30.7241 49.4595 34.0213 55.9106 38.7501 61.2496C44.0849 65.9844 50.5377 69.2825 57.5 70.8329C58.1758 70.9742 58.876 70.9454 59.5379 70.749C60.1997 70.5526 60.8024 70.1949 61.2917 69.7079L66.6667 64.2079L77.4584 74.9996L69.125 83.3329C55.3073 82.9772 42.123 77.4627 32.1667 67.8746C22.5539 57.9142 17.0234 44.7126 16.6667 30.8746L25.0001 22.5413ZM83.3334 45.8329H91.6667C91.7748 40.8788 90.8786 35.954 89.0323 31.3555C87.186 26.7569 84.4278 22.5798 80.9238 19.0758C77.4199 15.5719 73.2427 12.8136 68.6442 10.9673C64.0456 9.12103 59.1209 8.2249 54.1667 8.33295V16.6663C58.033 16.5325 61.8854 17.1955 65.4846 18.6139C69.0838 20.0324 72.3527 22.1759 75.0882 24.9114C77.8237 27.6469 79.9673 30.9159 81.3857 34.515C82.8042 38.1142 83.4671 41.9667 83.3334 45.8329Z" fill="#111111"/>
<path d="M54.1667 33.3333C62.9167 33.3333 66.6667 37.0833 66.6667 45.8333H75.0001C75.0001 32.4167 67.5834 25 54.1667 25V33.3333Z" fill="#111111"/>
</svg>
