<svg width="100" height="100" viewBox="0 0 100 100" fill="none" xmlns="http://www.w3.org/2000/svg">
<path d="M90.625 15.7227H68.2813C63.4863 15.7227 58.7988 17.0996 54.7656 19.6973L50 22.7539L45.2344 19.6973C41.2052 17.1001 36.5125 15.7201 31.7187 15.7227H9.375C7.64648 15.7227 6.25 17.1191 6.25 18.8477V74.3164C6.25 76.0449 7.64648 77.4414 9.375 77.4414H31.7187C36.5137 77.4414 41.2012 78.8184 45.2344 81.416L49.5703 84.209C49.6973 84.2871 49.8437 84.3359 49.9902 84.3359C50.1367 84.3359 50.2832 84.2969 50.4102 84.209L54.7461 81.416C58.7891 78.8184 63.4863 77.4414 68.2813 77.4414H90.625C92.3535 77.4414 93.75 76.0449 93.75 74.3164V18.8477C93.75 17.1191 92.3535 15.7227 90.625 15.7227ZM31.7187 70.4102H13.2812V22.7539H31.7187C35.1758 22.7539 38.5352 23.7402 41.4355 25.6055L46.2012 28.6621L46.875 29.1016V74.2188C42.2266 71.7188 37.0312 70.4102 31.7187 70.4102ZM86.7188 70.4102H68.2813C62.9688 70.4102 57.7734 71.7188 53.125 74.2188V29.1016L53.7988 28.6621L58.5645 25.6055C61.4648 23.7402 64.8242 22.7539 68.2813 22.7539H86.7188V70.4102ZM38.7598 35.2539H20.6152C20.2344 35.2539 19.9219 35.5859 19.9219 35.9863V40.3809C19.9219 40.7813 20.2344 41.1133 20.6152 41.1133H38.75C39.1309 41.1133 39.4434 40.7813 39.4434 40.3809V35.9863C39.4531 35.5859 39.1406 35.2539 38.7598 35.2539ZM60.5469 35.9863V40.3809C60.5469 40.7813 60.8594 41.1133 61.2402 41.1133H79.375C79.7559 41.1133 80.0684 40.7813 80.0684 40.3809V35.9863C80.0684 35.5859 79.7559 35.2539 79.375 35.2539H61.2402C60.8594 35.2539 60.5469 35.5859 60.5469 35.9863ZM38.7598 48.9258H20.6152C20.2344 48.9258 19.9219 49.2578 19.9219 49.6582V54.0527C19.9219 54.4531 20.2344 54.7852 20.6152 54.7852H38.75C39.1309 54.7852 39.4434 54.4531 39.4434 54.0527V49.6582C39.4531 49.2578 39.1406 48.9258 38.7598 48.9258ZM79.3848 48.9258H61.2402C60.8594 48.9258 60.5469 49.2578 60.5469 49.6582V54.0527C60.5469 54.4531 60.8594 54.7852 61.2402 54.7852H79.375C79.7559 54.7852 80.0684 54.4531 80.0684 54.0527V49.6582C80.0781 49.2578 79.7656 48.9258 79.3848 48.9258Z" fill="black"/>
</svg>
