<svg width="60" height="60" viewBox="0 0 60 60" fill="none" xmlns="http://www.w3.org/2000/svg">
<path d="M54.375 9.375H5.625C4.58789 9.375 3.75 10.2129 3.75 11.25V48.75C3.75 49.7871 4.58789 50.625 5.625 50.625H54.375C55.4121 50.625 56.25 49.7871 56.25 48.75V11.25C56.25 10.2129 55.4121 9.375 54.375 9.375ZM7.96875 13.5938H52.0312V20.625H7.96875V13.5938ZM52.0312 46.4062H7.96875V25.7812H52.0312V46.4062ZM38.1445 42.6562H47.8125C48.0703 42.6562 48.2812 42.4453 48.2812 42.1875V37.9688C48.2812 37.7109 48.0703 37.5 47.8125 37.5H38.1445C37.8867 37.5 37.6758 37.7109 37.6758 37.9688V42.1875C37.6758 42.4453 37.8867 42.6562 38.1445 42.6562Z" fill="#193059"/>
</svg>
