<?xml version="1.0" standalone="no"?>
<!DOCTYPE svg PUBLIC "-//W3C//DTD SVG 20010904//EN"
 "http://www.w3.org/TR/2001/REC-SVG-20010904/DTD/svg10.dtd">
<svg version="1.0" xmlns="http://www.w3.org/2000/svg"
 width="118.000000pt" height="118.000000pt" viewBox="0 0 118.000000 118.000000"
 preserveAspectRatio="xMidYMid meet">
<metadata>
Created by potrace 1.14, written by Peter Selinger 2001-2017
</metadata>
<g transform="translate(0.000000,118.000000) scale(0.100000,-0.100000)"
fill="#000000" stroke="none">
<path d="M500 835 c-100 -22 -142 -50 -178 -121 -35 -69 -40 -100 -51 -292 -1
-7 -6 -10 -12 -7 -6 4 -8 13 -5 21 8 22 -14 28 -32 9 -11 -11 -12 -15 -3 -10
10 6 12 4 5 -6 -12 -20 -14 -38 -3 -45 5 -3 9 -16 9 -30 0 -14 5 -24 13 -23
28 3 35 -2 30 -22 -6 -20 -7 -20 -18 -5 -19 25 -24 19 -14 -16 11 -39 19 -47
50 -53 13 -3 25 -9 27 -15 2 -6 50 -10 120 -9 65 0 111 3 104 6 -9 3 -5 12 13
29 15 13 30 22 35 19 5 -3 11 -1 15 5 3 5 -5 14 -18 19 -44 17 -36 26 23 26
32 0 56 -4 53 -8 -3 -4 15 -6 39 -3 23 3 44 10 46 15 2 6 10 7 19 4 12 -5 14
-3 8 8 -6 11 -5 11 4 3 10 -9 7 -23 -13 -62 -14 -28 -26 -54 -26 -57 0 -11 46
-4 64 10 11 8 28 15 38 15 10 0 18 5 18 11 0 5 -5 7 -10 4 -11 -7 -30 35 -30
66 0 14 7 19 26 19 14 0 24 5 22 11 -2 6 -7 10 -12 9 -9 -1 -37 55 -34 68 4
16 -15 53 -25 49 -7 -2 -23 0 -37 6 -33 13 -179 15 -184 2 -3 -5 -5 -4 -5 3
-1 6 -8 12 -17 12 -9 0 -12 -5 -8 -12 5 -8 3 -8 -7 -2 -8 5 -25 10 -39 10 -66
3 -63 1 -56 47 9 51 10 78 3 138 -8 67 12 101 80 131 65 29 52 40 -27 23z m75
-395 c-3 -5 -12 -10 -18 -10 -7 0 -6 4 3 10 19 12 23 12 15 0z m-152 -95 c-3
-9 -8 -14 -10 -11 -3 3 -2 9 2 15 9 16 15 13 8 -4z m164 -10 c0 -8 -4 -12 -9
-9 -4 3 -8 9 -8 15 0 5 4 9 8 9 5 0 9 -7 9 -15z m-101 -42 c18 -24 17 -43 0
-43 -14 0 -46 36 -46 52 0 15 33 8 46 -9z"/>
<path d="M852 423 c4 -35 27 -60 29 -31 1 7 2 20 3 28 1 8 -3 21 -8 28 -16 23
-27 12 -24 -25z"/>
</g>
</svg>
